<?xml version="1.0" standalone="no"?>
<!DOCTYPE svg PUBLIC "-//W3C//DTD SVG 20010904//EN"
 "http://www.w3.org/TR/2001/REC-SVG-20010904/DTD/svg10.dtd">
<svg version="1.0" xmlns="http://www.w3.org/2000/svg"
 width="963.000000pt" height="1340.000000pt" viewBox="0 0 963.000000 1340.000000"
 preserveAspectRatio="xMidYMid meet">

<g transform="translate(0.000000,1340.000000) scale(0.100000,-0.100000)"
fill="#000000" stroke="none">
<path d="M4738 10552 l-1486 -2367 39 -3 c21 -2 214 6 428 17 213 12 403 21
420 21 l32 0 -3 -147 -3 -147 -110 -21 c-381 -76 -802 -250 -1128 -467 -48
-32 -91 -58 -95 -58 -4 0 -139 132 -299 292 l-293 293 -392 -393 -393 -392
293 -293 c160 -160 292 -296 292 -300 0 -4 -22 -40 -48 -80 -242 -360 -400
-752 -498 -1234 l-4 -23 -415 0 -415 0 0 -555 0 -555 415 0 415 0 5 -22 c2
-13 16 -77 31 -142 55 -252 137 -487 253 -723 79 -159 165 -309 227 -394 19
-26 34 -51 34 -55 0 -5 -132 -141 -292 -301 l-293 -293 393 -392 392 -393 294
294 294 294 128 -83 c155 -99 461 -251 635 -314 185 -68 266 -90 556 -152 l23
-4 2 -418 3 -417 550 0 550 0 5 419 5 418 135 28 c383 80 819 264 1128 477 35
23 66 43 70 43 4 0 139 -132 299 -292 l293 -293 392 393 393 392 -293 293
c-160 160 -292 296 -292 300 0 4 22 40 48 80 219 326 404 766 477 1137 9 47
19 93 21 103 5 16 34 17 420 17 l414 0 0 555 0 555 -414 0 c-386 0 -415 1
-420 18 -3 9 -15 62 -26 117 -81 382 -244 774 -456 1098 -35 54 -64 101 -64
105 0 4 132 139 292 299 l293 293 -350 350 c-326 326 -348 350 -333 367 191
222 977 1188 971 1193 -4 5 -541 204 -1193 443 -1096 403 -1185 437 -1188 459
-2 13 72 676 163 1472 91 797 164 1450 162 1452 -2 2 -672 -1062 -1489 -2364z
m1057 379 c-69 -602 -124 -1095 -123 -1096 2 -1 505 -187 1118 -413 613 -226
1125 -414 1138 -419 21 -8 -32 -74 -715 -898 -405 -490 -1036 -1252 -1403
-1695 -1056 -1276 -1133 -1370 -1137 -1366 -2 1 22 59 53 127 231 507 1514
3363 1512 3364 -2 2 -338 -15 -748 -36 -1563 -82 -1845 -96 -1849 -93 -2 2
509 820 1135 1818 627 997 1140 1811 1142 1807 1 -3 -54 -499 -123 -1100z
m112 -2633 c-13 -32 -209 -463 -211 -466 -2 -2 -46 9 -97 23 -52 15 -143 37
-204 50 l-110 22 -3 177 -2 176 32 1 c18 1 130 7 248 14 303 17 353 18 347 3z
m-837 -288 l0 -260 23 -4 c12 -3 58 -10 102 -17 83 -11 299 -59 372 -81 l42
-13 -217 -483 -217 -484 -35 5 c-19 3 -78 13 -130 23 -117 22 -411 24 -550 5
-656 -92 -1215 -484 -1528 -1071 -393 -737 -272 -1669 296 -2292 367 -401 835
-624 1395 -664 l97 -6 0 104 0 104 -142 12 c-251 21 -432 73 -663 187 -195 97
-310 181 -470 340 -159 159 -243 274 -339 470 -110 221 -159 389 -185 627 -65
595 176 1185 644 1576 342 286 794 440 1230 419 128 -6 265 -24 278 -36 6 -6
-1186 -2675 -1230 -2756 -15 -26 89 98 1006 1207 539 653 985 1189 989 1192
12 7 176 -139 237 -210 269 -313 413 -643 455 -1035 66 -628 -234 -1285 -753
-1648 -83 -58 -227 -144 -233 -139 -2 3 27 128 66 278 54 208 68 275 59 281
-18 11 -181 51 -186 45 -9 -9 -224 -859 -220 -870 3 -7 163 -37 403 -75 220
-35 404 -66 410 -68 11 -4 17 22 39 163 l6 41 -173 27 c-223 35 -223 35 -167
68 24 15 89 60 144 100 330 244 580 589 715 983 171 499 132 1063 -107 1539
-119 237 -321 496 -497 636 -31 25 -56 48 -56 52 0 5 171 214 379 466 329 396
411 488 613 689 l233 233 248 -248 247 -247 -284 -284 -284 -284 75 -100 c270
-364 471 -842 547 -1307 9 -52 19 -110 22 -127 l5 -33 404 0 405 0 0 -345 0
-345 -405 0 -404 0 -5 -32 c-66 -403 -132 -629 -271 -933 -73 -159 -255 -457
-349 -570 l-25 -30 287 -288 287 -288 -250 -244 -250 -244 -285 284 -285 283
-50 -39 c-74 -58 -257 -178 -362 -237 -301 -169 -663 -294 -1014 -352 -68 -11
-127 -20 -131 -20 -5 0 -8 -182 -8 -405 l0 -405 -345 0 -345 0 0 405 c0 223
-3 405 -7 405 -5 0 -64 9 -132 20 -489 80 -952 274 -1344 564 -42 31 -80 56
-84 56 -4 0 -134 -126 -289 -281 l-281 -281 -249 245 -249 246 287 288 286
288 -39 50 c-79 99 -209 303 -278 435 -111 213 -201 451 -261 689 -18 71 -70
355 -70 382 0 5 -165 9 -405 9 l-405 0 0 345 0 345 404 0 405 0 6 48 c74 523
274 1022 568 1417 l75 100 -284 285 -284 285 248 248 248 248 282 -286 282
-286 58 44 c384 295 878 505 1362 581 58 9 115 19 128 22 l22 4 0 240 c0 132
1 240 3 241 4 1 599 36 645 38 l42 1 0 -260z"/>
<path d="M660 10544 c0 -823 3 -1095 12 -1092 24 8 2047 1083 2047 1088 0 3
-426 231 -947 508 -521 276 -984 523 -1029 547 l-83 44 0 -1095z m1610 -4 c0
-5 -1393 -750 -1404 -750 -1 0 -2 339 -2 753 l1 752 703 -374 c386 -206 702
-377 702 -381z"/>
<path d="M2027 11468 c-26 -50 -46 -92 -45 -93 2 -1 353 -188 781 -415 427
-227 777 -416 777 -420 0 -4 -351 -193 -779 -421 l-780 -413 46 -88 c25 -49
50 -88 55 -88 5 0 335 173 731 384 397 211 822 436 945 501 122 65 222 121
222 125 0 4 -21 18 -47 32 -118 64 -1855 988 -1857 988 0 0 -22 -41 -49 -92z"/>
</g>
</svg>
